M48
; DRILL file {KiCad (6.0.4)} date Wed Apr 20 21:05:39 2022
; FORMAT={-:-/ absolute / metric / decimal}
; #@! TF.CreationDate,2022-04-20T21:05:39-04:00
; #@! TF.GenerationSoftware,Kicad,Pcbnew,(6.0.4)
; #@! TF.FileFunction,MixedPlating,1,2
FMAT,2
METRIC
; #@! TA.AperFunction,Plated,PTH,ComponentDrill
T1C0.800
; #@! TA.AperFunction,Plated,PTH,ComponentDrill
T2C1.000
; #@! TA.AperFunction,Plated,PTH,ComponentDrill
T3C1.400
%
G90
G05
T1
X110.653Y-99.327
X110.653Y-101.867
X110.653Y-104.407
X110.653Y-106.947
X110.653Y-109.487
X110.653Y-112.027
X110.653Y-114.567
X110.653Y-117.107
X110.653Y-119.647
X110.653Y-122.187
X113.193Y-99.327
X113.193Y-101.867
X113.193Y-104.407
X113.193Y-106.947
X113.193Y-109.487
X113.193Y-112.027
X113.193Y-114.567
X113.193Y-117.107
X113.193Y-119.647
X113.193Y-122.187
X136.053Y-99.327
X136.053Y-101.867
X136.053Y-104.407
X136.053Y-106.947
X136.053Y-109.487
X136.053Y-112.027
X136.053Y-114.567
X136.053Y-117.107
X136.053Y-119.647
X136.053Y-122.187
X138.593Y-99.327
X138.593Y-101.867
X138.593Y-104.407
X138.593Y-106.947
X138.593Y-109.487
X138.593Y-112.027
X138.593Y-114.567
X138.593Y-117.107
X138.593Y-119.647
X138.593Y-122.187
T2
X115.824Y-85.344
X115.824Y-87.884
X118.364Y-85.344
X118.364Y-87.884
X120.904Y-85.344
X120.904Y-87.884
X123.444Y-85.344
X123.444Y-87.884
X125.984Y-85.344
X125.984Y-87.884
X128.524Y-85.344
X128.524Y-87.884
X131.064Y-85.344
X131.064Y-87.884
X133.604Y-85.344
X133.604Y-87.884
T3
X141.852Y-136.144
X149.352Y-136.144
T0
M30
